{"title":"Lake Eerie 2016 Movies HDRip XviD New Source with Sample ~ ☻rDX☻","uid":13263234,"size":740091559,"categoryP":"video","categoryS":"movies","magnet":"?xt=urn:btih:88cee8c87e68c79c6a95d83fa9fa10c8ab34cb08&amp;dn=Lake+Eerie+2016+Movies+HDRip+XviD+New+Source+with+Sample+%7E+%E2%98%BBrDX%E2%98%BB&amp;tr=udp%3A%2F%2Ftracker.leechers-paradise.org%3A6969&amp;tr=udp%3A%2F%2Fzer0day.ch%3A1337&amp;tr=udp%3A%2F%2Fopen.demonii.com%3A1337&amp;tr=udp%3A%2F%2Ftracker.coppersurfer.tk%3A6969&amp;tr=udp%3A%2F%2Fexodus.desync.com%3A6969","seeders":1,"leechers":0,"uploader":"basicssom","files":2,"time":1453309855,"description":"----------------------------------------------------------------\r\nLake Eerie 2016 English Movies HDRip XviD AAC New Source with Sample ~ ☻rDX☻\r\n\r\nSCREEN SHOTS &amp; POSTER:\r\n  \nhttp://doctorhosts.com/2016/1/LakeEerie/11.html  \nhttp://doctorhosts.com/2016/1/LakeEerie/1.html  \nhttp://doctorhosts.com/2016/1/LakeEerie/2.html  \nhttp://doctorhosts.com/2016/1/LakeEerie/3.html  \nhttp://doctorhosts.com/2016/1/LakeEerie/4.html  \nhttp://doctorhosts.com/2016/1/LakeEerie/5.html  \nhttp://doctorhosts.com/2016/1/LakeEerie/6.html  \nhttp://doctorhosts.com/2016/1/LakeEerie/7.html  \nhttp://doctorhosts.com/2016/1/LakeEerie/8.html  \nhttp://doctorhosts.com/2016/1/LakeEerie/9.html  \nhttp://doctorhosts.com/2016/1/LakeEerie/10.html\r\n\r\nFormat                                   : Matroska\r\nFormat version                           : Version 4 / Version 2\r\nFile size                                : 693 MiB\r\nDuration                                 : 1h 43mn\r\nOverall bit rate                         : 935 Kbps\r\nMovie name                               : Lake Eerie 2016 English Movies HDRip XviD AAC New Source ☻rDX☻\r\n\r\nVideo\r\nID                                       : 1\r\nFormat                                   : MPEG-4 Visual\r\nFormat profile                           : Advanced   \r\nFormat settings, BVOP                    : Yes\r\nFormat settings, QPel                    : No\r\nFormat settings, GMC                     : No warppoints\r\nFormat settings, Matrix                  : Default (H.263)\r\nCodec ID                                 : V_MS/VFW/FOURCC / XVID\r\nCodec ID/Hint                            : XviD\r\nDuration                                 : 1h 43mn\r\nBit rate                                 : 789 Kbps\r\nWidth                                    : 640 pixels\r\nHeight                                   : 320 pixels\r\nDisplay aspect ratio                     : 2.000\r\nFrame rate mode                          : Constant\r\nFrame rate                               : 23.976 fps\r\nColor space                              : YUV\r\nChroma subsampling                       : 4:2:0\r\nBit depth                                : 8 bits\r\nScan type                                : Progressive\r\nCompression mode                         : Lossy\r\nBits/(Pixel*Frame)                       : 0.161\r\nStream size                              : 584 MiB (84%)\r\nTitle                                    : ☻rDX☻\r\nWriting library                          : XviD 67\r\nDefault                                  : Yes\r\nForced                                   : No\r\n\r\nAudio\r\nID                                       : 2\r\nFormat                                   : MPEG Audio\r\nFormat version                           : Version 1\r\nFormat profile                           : Layer 3\r\nMode                                     : Joint stereo\r\nMode extension                           : MS Stereo\r\nCodec ID                                 : A_MPEG/L3\r\nCodec ID/Hint                            : MP3\r\nDuration                                 : 1h 43mn\r\nBit rate mode                            : Constant\r\nBit rate                                 : 128 Kbps\r\nChannel(s)                               : 2 channels\r\nSampling rate                            : 48.0 KHz\r\nCompression mode                         : Lossy\r\nStream size                              : 94.8 MiB (14%)\r\nTitle                                    : ☻rDX☻\r\nWriting library                          : LAME3.99r\r\nEncoding settings                        : -m j -V 4 -q 3 -lowpass 17 -b 128\r\nDefault                                  : Yes\r\nForced                                   : No\r\n\r\nIMDB                                      \nhttp://www.imdb.com/title/tt2948078/","torrent":{"xt":"urn:btih:88cee8c87e68c79c6a95d83fa9fa10c8ab34cb08","amp;dn":"Lake+Eerie+2016+Movies+HDRip+XviD+New+Source+with+Sample+%7E+%E2%98%BBrDX%E2%98%BB","amp;tr":["udp%3A%2F%2Ftracker.leechers-paradise.org%3A6969","udp%3A%2F%2Fzer0day.ch%3A1337","udp%3A%2F%2Fopen.demonii.com%3A1337","udp%3A%2F%2Ftracker.coppersurfer.tk%3A6969","udp%3A%2F%2Fexodus.desync.com%3A6969"],"infoHash":"88cee8c87e68c79c6a95d83fa9fa10c8ab34cb08","infoHashBuffer":{"type":"Buffer","data":[136,206,232,200,126,104,199,156,106,149,216,63,169,250,16,200,171,52,203,8]},"announce":[],"urlList":[]}}